<svg id="Layer_1" data-name="Layer 1" xmlns="http://www.w3.org/2000/svg" viewBox="0 0 445.06 486"><defs><style>.cls-1{fill:#fff;}.cls-2{fill:#1b274e;}</style></defs><title>xtra-logo</title><path class="cls-1" d="M425.63,106.19c-5.55-5.21-17.27-14.93-36.32-24.58-25.89-13.14-70.95-28.82-138.67-28.95S137.79,68,111.85,81.07C92.76,90.66,81,100.32,75.41,105.54c-1.49,16.8-3.94,66.15,11.5,124.58a343.62,343.62,0,0,0,53.18,113.72c28.09,39,65,72.12,109.74,98.55,44.88-26.24,81.89-59.22,110.16-98.11a344.18,344.18,0,0,0,53.64-113.54c15.69-58.4,13.44-107.76,12-124.55M292.34,191.75a27.24,27.24,0,0,0,0,36.17l65.72,74.22H322.28L263.1,249.5a21.14,21.14,0,0,0-28.09,0l-59.18,52.64h-36l68.43-77.08a22.92,22.92,0,0,0,0-30.49l-68.43-77.11h36l59.91,52.77a20.59,20.59,0,0,0,27.27-.06l59.29-52.71h38.81Z" transform="translate(-27.94 -8)"/><path class="cls-1" d="M470.85,93.91l-.91-6.41-4.13-5.08c-2.47-3-62-74.14-215.08-74.42S37.85,78.56,35.36,81.59l-4.15,5.09-.95,6.41c-.41,2.65-9.48,66.17,11.33,146.34a388.16,388.16,0,0,0,59.83,129c34.32,47.92,80.06,87.89,136,118.77l12.33,6.8,12.36-6.75c56-30.67,101.95-70.47,136.47-118.26a388.24,388.24,0,0,0,60.34-128.76c21.14-80.09,12.34-143.65,11.94-146.32M249.78,466.34C18.91,338.84,54.93,96.49,54.93,96.49S107.91,31.76,250.7,32s195.48,65.2,195.48,65.2,35,242.47-196.4,369.1" transform="translate(-27.94 -8)"/><path class="cls-1" d="M425.63,106.19c-5.55-5.21-17.27-14.93-36.32-24.58-25.89-13.14-70.95-28.82-138.67-28.95S137.79,68,111.85,81.07C92.76,90.66,81,100.32,75.41,105.54c-1.49,16.8-3.94,66.15,11.5,124.58a343.62,343.62,0,0,0,53.18,113.72c28.09,39,65,72.12,109.74,98.55,44.88-26.24,81.89-59.22,110.16-98.11a344.18,344.18,0,0,0,53.64-113.54c15.69-58.4,13.44-107.76,12-124.55M292.34,191.75a27.24,27.24,0,0,0,0,36.17l65.72,74.22H322.28L263.1,249.5a21.14,21.14,0,0,0-28.09,0l-59.18,52.64h-36l68.43-77.08a22.92,22.92,0,0,0,0-30.49l-68.43-77.11h36l59.91,52.77a20.59,20.59,0,0,0,27.27-.06l59.29-52.71h38.81Z" transform="translate(-27.94 -8)"/><path class="cls-1" d="M470.85,93.91l-.91-6.41-4.13-5.08c-2.47-3-62-74.14-215.08-74.42S37.85,78.56,35.36,81.59l-4.15,5.09-.95,6.41c-.41,2.65-9.48,66.17,11.33,146.34a388.16,388.16,0,0,0,59.83,129c34.32,47.92,80.06,87.89,136,118.77l12.33,6.8,12.36-6.75c56-30.67,101.95-70.47,136.47-118.26a388.24,388.24,0,0,0,60.34-128.76c21.14-80.09,12.34-143.65,11.94-146.32M249.78,466.34C18.91,338.84,54.93,96.49,54.93,96.49S107.91,31.76,250.7,32s195.48,65.2,195.48,65.2,35,242.47-196.4,369.1" transform="translate(-27.94 -8)"/><path class="cls-2" d="M425.63,106.19c-5.55-5.21-17.27-14.93-36.32-24.58-25.89-13.14-70.95-28.82-138.67-28.95S137.79,68,111.85,81.07C92.76,90.66,81,100.32,75.41,105.54c-1.49,16.8-3.94,66.15,11.5,124.58a343.62,343.62,0,0,0,53.18,113.72c28.09,39,65,72.12,109.74,98.55,44.88-26.24,81.89-59.22,110.16-98.11a344.18,344.18,0,0,0,53.64-113.54c15.69-58.4,13.44-107.76,12-124.55M292.34,191.75a27.24,27.24,0,0,0,0,36.17l65.72,74.22H322.28L263.1,249.5a21.14,21.14,0,0,0-28.09,0l-59.18,52.64h-36l68.43-77.08a22.92,22.92,0,0,0,0-30.49l-68.43-77.11h36l59.91,52.77a20.59,20.59,0,0,0,27.27-.06l59.29-52.71h38.81Z" transform="translate(-27.94 -8)"/><path class="cls-2" d="M470.85,93.91l-.91-6.41-4.13-5.08c-2.47-3-62-74.14-215.08-74.42S37.85,78.56,35.36,81.59l-4.15,5.09-.95,6.41c-.41,2.65-9.48,66.17,11.33,146.34a388.16,388.16,0,0,0,59.83,129c34.32,47.92,80.06,87.89,136,118.77l12.33,6.8,12.36-6.75c56-30.67,101.95-70.47,136.47-118.26a388.24,388.24,0,0,0,60.34-128.76c21.14-80.09,12.34-143.65,11.94-146.32M249.78,466.34C18.91,338.84,54.93,96.49,54.93,96.49S107.91,31.76,250.7,32s195.48,65.2,195.48,65.2,35,242.47-196.4,369.1" transform="translate(-27.94 -8)"/></svg>